<svg width="90" height="42" viewBox="0 0 90 42" fill="none" xmlns="http://www.w3.org/2000/svg">
<circle cx="40" cy="21" r="20.5" stroke="black"/>
<line y1="30.5" x2="80" y2="30.5" stroke="black"/>
<path d="M39.334 14.2031V15.1172L34.0342 27H32.3203L37.6113 15.5391H30.6855V14.2031H39.334ZM49.5732 25.6641V27H41.1973V25.8311L45.3896 21.1641C45.9053 20.5898 46.3037 20.1035 46.585 19.7051C46.8721 19.3008 47.0713 18.9404 47.1826 18.624C47.2998 18.3018 47.3584 17.9736 47.3584 17.6396C47.3584 17.2178 47.2705 16.8369 47.0947 16.4971C46.9248 16.1514 46.6729 15.876 46.3389 15.6709C46.0049 15.4658 45.6006 15.3633 45.126 15.3633C44.5576 15.3633 44.083 15.4746 43.7021 15.6973C43.3271 15.9141 43.0459 16.2188 42.8584 16.6113C42.6709 17.0039 42.5771 17.4551 42.5771 17.9648H40.9512C40.9512 17.2441 41.1094 16.585 41.4258 15.9873C41.7422 15.3896 42.2109 14.915 42.832 14.5635C43.4531 14.2061 44.2178 14.0273 45.126 14.0273C45.9346 14.0273 46.626 14.1709 47.2002 14.458C47.7744 14.7393 48.2139 15.1377 48.5186 15.6533C48.8291 16.1631 48.9844 16.7607 48.9844 17.4463C48.9844 17.8213 48.9199 18.2021 48.791 18.5889C48.668 18.9697 48.4951 19.3506 48.2725 19.7314C48.0557 20.1123 47.8008 20.4873 47.5078 20.8564C47.2207 21.2256 46.9131 21.5889 46.585 21.9463L43.1572 25.6641H49.5732Z" fill="black"/>
</svg>
